<?xml version="1.0" encoding="utf-8"?>
<!-- Generator: Adobe Illustrator 26.3.1, SVG Export Plug-In . SVG Version: 6.00 Build 0)  -->
<svg version="1.1" id="Layer_1" xmlns="http://www.w3.org/2000/svg" xmlns:xlink="http://www.w3.org/1999/xlink" x="0px" y="0px"
	 viewBox="0 0 512 512" style="enable-background:new 0 0 512 512;" xml:space="preserve">
<style type="text/css">
	.st0{fill:#F1F2F2;}
	.st1{fill:#31C0D8;}
	.st2{fill:#FFD248;}
	.st3{fill:#231F20;}
</style>
<path class="st0" d="M93.4,451.8l-0.7,0.8c-47.4-38.7-77.6-97.5-77.6-163.5h60.2h222.9h6c0,0-14.6,56.1-60.8,102.4
	C210.9,424.1,162.9,451.8,93.4,451.8z"/>
<path class="st1" d="M304.2,283.1v6H75.3C36.1,250,45.2,156.6,45.2,156.6L304.2,283.1z"/>
<path class="st2" d="M304.2,289.1V78.3c0-36.6,29.6-66.3,66.3-66.3s66.3,29.6,66.3,66.3v54.2h60.2c0,30-24.2,54.2-54.2,54.2
	c-2,0-4-0.4-6-0.6v103c0,116.5-94.3,210.8-210.8,210.8c-50.6,0-96.9-17.7-133.2-47.3l0.7-0.8c69.5,0,117.6-27.7,150-60.2
	C289.6,345.3,304.2,289.1,304.2,289.1z"/>
<g>
	<path class="st3" d="M3,289.1c0,67.3,29.9,130.2,82,172.8c40.2,32.8,88.9,50.1,140.9,50.1c59.6,0,115.5-23.2,157.6-65.3
		c42.1-42.1,65.3-98.1,65.3-157.6v-90.6c33.7-3.1,60.2-31.5,60.2-66c0-6.7-5.4-12-12-12h-48.2V78.3c0-43.2-35.1-78.3-78.3-78.3
		c-43.2,0-78.3,35.1-78.3,78.3v185.5l-241.7-118c-3.5-1.7-7.7-1.6-11.2,0.3c-3.4,1.9-5.7,5.4-6.1,9.4c-0.3,3.5-6.8,74.6,18.6,121.6
		H15.1C8.4,277.1,3,282.5,3,289.1z M56.3,175.4l208.1,101.6H80.6C59.9,252.4,55.9,205.1,56.3,175.4z M225.9,487.9
		c-35.4,0-69.1-9-99-26.2c48.6-6.4,90.5-27,125-61.6c48-48,63.3-105.5,64-107.9l0,0c0.3-1,0.4-2,0.4-3V78.3
		c0-29.9,24.3-54.2,54.2-54.2s54.2,24.3,54.2,54.2v54.2c0,6.7,5.4,12,12,12h46.4c-5.2,17.4-21.3,30.1-40.4,30.1
		c-0.7,0-5.5-0.6-6-0.6c-2.9,0-5.8,1.1-8,3c-2.6,2.3-4.1,5.6-4.1,9v103c0,53.1-20.7,103-58.2,140.6
		C328.9,467.2,279,487.9,225.9,487.9z M27.5,301.2h259.9c-2.5,6.5-6.1,14.8-10.9,24.1H165.6v24.1h96.6c-6.7,10-14.6,20.3-24,30.1
		H117.5v24.1h93.3c-32.5,23.5-70.9,35.6-114.8,36.1C55.2,404.5,30.7,354.8,27.5,301.2z"/>
	<path class="st3" d="M370.4,90.4c0,10,8.1,18.1,18.1,18.1c10,0,18.1-8.1,18.1-18.1s-8.1-18.1-18.1-18.1S370.4,80.4,370.4,90.4z"/>
</g>
</svg>
